# xmcd
#
# Track frame offsets:
#	150
#	5147
#	22834
#	32712
#	42197
#	58445
#	71144
#	87058
#	125517
#
# Disc length: 1890 seconds
#
# Revision: 1
# Processed by: cddbd v1.5.2PL0 Copyright (c) Steve Scherf et al.
# Submitted via: audiograbber 1.83.01
#
DISCID=76076009
DTITLE=Ike and Tina Turner - ike and tina turner "Live" IN Paris CD 1
DYEAR=1971
DGENRE=
TTITLE0=Grumbling
TTITLE1=You Got Me Hummin'
TTITLE2=Everyday People
TTITLE3=Shake A Tail Feather
TTITLE4=Medley
TTITLE5=Son Of A Preacher Man
TTITLE6=Come Together
TTITLE7=Proud Mary
TTITLE8=A Love Like Yours Don't Come Knocking Everyday
EXTD=
EXTT0=
EXTT1=
EXTT2=
EXTT3=
EXTT4=
EXTT5=
EXTT6=
EXTT7=
EXTT8=
PLAYORDER=
